<svg fill="none" height="17" viewBox="0 0 17 17" width="17" xmlns="http://www.w3.org/2000/svg">
                        <path d="M13.8462 15.8462H1.15385V3.15385H8.78077L9.93462 2H1.15385C0.847827 2 0.554342 2.12157 0.337954 2.33795C0.121566 2.55434 0 2.84783 0 3.15385V15.8462C0 16.1522 0.121566 16.4457 0.337954 16.662C0.554342 16.8784 0.847827 17 1.15385 17H13.8462C14.1522 17 14.4457 16.8784 14.662 16.662C14.8784 16.4457 15 16.1522 15 15.8462V7.19231L13.8462 8.34615V15.8462Z" fill="#CDCDCD"/>
                        <path d="M16.7293 2.19468L14.8013 0.270183C14.7158 0.18454 14.6141 0.11659 14.5022 0.0702276C14.3903 0.0238649 14.2703 0 14.1491 0C14.028 0 13.908 0.0238649 13.7961 0.0702276C13.6842 0.11659 13.5825 0.18454 13.4969 0.270183L5.65341 8.1452L5.01838 10.892C4.99133 11.0252 4.99417 11.1627 5.02671 11.2946C5.05925 11.4265 5.12067 11.5496 5.20656 11.655C5.29245 11.7604 5.40067 11.8455 5.52344 11.9041C5.64621 11.9628 5.78048 11.9935 5.91658 11.9942C5.98693 12.0019 6.05791 12.0019 6.12826 11.9942L8.90296 11.3832L16.7293 3.49671C16.8151 3.41131 16.8832 3.30984 16.9296 3.19813C16.9761 3.08641 17 2.96665 17 2.8457C17 2.72475 16.9761 2.60498 16.9296 2.49327C16.8832 2.38156 16.8151 2.28009 16.7293 2.19468ZM8.30797 10.3267L6.21407 10.7892L6.70036 8.71627L12.6045 2.78288L14.2178 4.39329L8.30797 10.3267ZM14.8643 3.74798L13.2509 2.13757L14.1377 1.23529L15.7625 2.85712L14.8643 3.74798Z" fill="#CDCDCD"/>
                      </svg>